<svg viewBox="0 0 96 96" xmlns="http://www.w3.org/2000/svg" xmlns:xlink="http://www.w3.org/1999/xlink" id="Icons_Anchor" overflow="hidden"><path d="M48 14C50.2 14 52 15.8 52 18 52 20.2 50.2 22 48 22 45.8 22 44 20.2 44 18 44 15.8 45.8 14 48 14ZM81.5 46.6C81.4 45.9 80.9 45.3 80.3 45 79.7 44.7 78.9 44.8 78.3 45.3L67 54C66.4 54.4 66.1 55.1 66.2 55.9 66.3 56.6 66.8 57.2 67.4 57.5L71.7 59.3C69.4 69.2 61.1 76.6 51 77.8L51 37 76 37 76 31 51 31 51 27.5C55.7 26 58.6 21.3 57.9 16.4 57.1 11.6 52.9 8 48 8 43.1 8 38.9 11.6 38.1 16.5 37.4 21.4 40.3 26.1 45 27.6L45 31 20 31 20 37 45 37 45 77.8C34.9 76.5 26.6 69.1 24.3 59.2L28.6 57.4C29.2 57.1 29.7 56.5 29.8 55.8 29.9 55.1 29.6 54.4 29 54L17.7 45.3C17.1 44.9 16.4 44.8 15.7 45 15 45.3 14.6 45.9 14.5 46.6L12.7 60.8C12.6 61.5 12.9 62.2 13.5 62.6 14.1 63 14.8 63.1 15.5 62.9L18.7 61.6C21.4 71.6 29.1 79.6 39 82.7L47 87C47.6 87.3 48.3 87.3 48.9 87L57 82.6C66.9 79.5 74.5 71.5 77.2 61.5L80.4 62.9C81.1 63.2 81.8 63.1 82.4 62.6 83 62.2 83.3 61.5 83.2 60.8L81.5 46.6Z" fill="#D4AF37"/></svg>